<?xml version="1.0" encoding="utf-8"?>
<!-- Generator: Adobe Illustrator 16.0.0, SVG Export Plug-In . SVG Version: 6.00 Build 0)  -->
<!DOCTYPE svg PUBLIC "-//W3C//DTD SVG 1.1//EN" "http://www.w3.org/Graphics/SVG/1.1/DTD/svg11.dtd">
<svg version="1.1" id="Capa_1" xmlns="http://www.w3.org/2000/svg" xmlns:xlink="http://www.w3.org/1999/xlink" x="0px" y="0px"
	 width="82.946px" height="69.464px" viewBox="0 0 82.946 69.464" enable-background="new 0 0 82.946 69.464" xml:space="preserve">
<g>
	<path fill="#4D4D4D" d="M71.758,69.464H5.686C2.546,69.464,0,66.918,0,63.777V5.686C0,2.546,2.546,0,5.686,0h41.405
		c3.141,0,5.687,2.546,5.687,5.686c0,3.141-2.546,5.687-5.687,5.687H11.373v46.72h54.699v-9.247c0-3.141,2.547-5.687,5.687-5.687
		s5.687,2.546,5.687,5.687v14.933C77.445,66.918,74.898,69.464,71.758,69.464z"/>
</g>
<path fill="#4D4D4D" d="M82.146,21.597L64.287,5.283c-1.066-0.974-1.938-0.589-1.938,0.854v7.062
	c-36.843,2.609-39.105,33.723-39.105,33.723s16.243-21.074,39.105-13.757v7.429c0,1.443,0.872,1.828,1.938,0.854l17.859-16.312
	C83.212,24.163,83.212,22.57,82.146,21.597z"/>
</svg>
