<?xml version="1.0" encoding="utf-8"?>
<!-- Generator: Adobe Illustrator 16.0.0, SVG Export Plug-In . SVG Version: 6.00 Build 0)  -->
<!DOCTYPE svg PUBLIC "-//W3C//DTD SVG 1.1//EN" "http://www.w3.org/Graphics/SVG/1.1/DTD/svg11.dtd">
<svg version="1.1" id="Capa_1" xmlns="http://www.w3.org/2000/svg" xmlns:xlink="http://www.w3.org/1999/xlink" x="0px" y="0px"
	 width="99.509px" height="66.604px" viewBox="0 0 99.509 66.604" enable-background="new 0 0 99.509 66.604" xml:space="preserve">
<g>
	<path fill="#4D4D4D" d="M12.937,5.54V0.874c0-0.906-0.548-1.147-1.217-0.536L0.502,10.582c-0.67,0.612-0.67,1.612,0,2.224
		L11.72,23.052c0.669,0.611,1.217,0.37,1.217-0.537V18.08V5.54z"/>
</g>
<g>
	<path fill="#4D4D4D" d="M86.572,60.453v4.666c0,0.907,0.548,1.148,1.217,0.536l11.218-10.244c0.67-0.611,0.67-1.612,0-2.224
		L87.789,42.942c-0.669-0.612-1.217-0.37-1.217,0.536v4.436V60.453z"/>
</g>
<g>
	<path fill="#4D4D4D" d="M21.044,7.849H4.861c-2.124,0-3.846,1.722-3.846,3.846s1.722,3.847,3.846,3.847h16.183
		c9.628,0,14.44,4.358,19.74,11.894l4.504-6.862C39.349,12.775,32.955,7.849,21.044,7.849z"/>
	<path fill="#4D4D4D" d="M91.912,50.453H75.49c-10.382,0-15.182-7.266-21.494-17.121l-4.41,7.338
		c6.182,9.371,12.865,17.475,25.904,17.475h16.422c2.125,0,3.847-1.722,3.847-3.846S94.037,50.453,91.912,50.453z"/>
</g>
<g>
	<path fill="#4D4D4D" d="M86.572,17.85v4.665c0,0.907,0.548,1.148,1.217,0.537l11.218-10.245c0.67-0.611,0.67-1.611,0-2.223
		L87.789,0.338c-0.669-0.611-1.217-0.37-1.217,0.536V5.31V17.85z"/>
</g>
<g>
	<path fill="#4D4D4D" d="M12.937,48.145v-4.666c0-0.906-0.548-1.148-1.217-0.536L0.502,53.187c-0.67,0.611-0.67,1.612,0,2.224
		L11.72,65.655c0.669,0.612,1.217,0.371,1.217-0.536v-4.435V48.145z"/>
</g>
<g>
	<path fill="#4D4D4D" d="M20.266,58.145H6.469v-7.691h6.46c1.521,0,7.337,0,7.337,0c8.818,0,13.764-5.121,18.888-13.383
		c0.992-1.602,1.944-3.233,2.951-4.961c0.636-1.09,1.272-2.183,1.921-3.268c1.652-2.767,3.67-5.998,6.102-8.987
		c6.666-8.19,14.478-12.006,24.585-12.006H93.27c2.123,0,3.846,1.722,3.846,3.846s-1.723,3.847-3.846,3.847H74.712
		c-7.716,0-13.459,2.827-18.618,9.168c-2.123,2.608-3.954,5.547-5.465,8.077c-0.635,1.062-1.258,2.131-1.879,3.196
		c-0.989,1.697-2.012,3.451-3.06,5.141C40.209,49.964,33.334,58.145,20.266,58.145z"/>
</g>
</svg>
