<?xml version="1.0" encoding="utf-8"?>
<!-- Generator: Adobe Illustrator 16.0.0, SVG Export Plug-In . SVG Version: 6.00 Build 0)  -->
<!DOCTYPE svg PUBLIC "-//W3C//DTD SVG 1.1//EN" "http://www.w3.org/Graphics/SVG/1.1/DTD/svg11.dtd">
<svg version="1.1" id="Capa_1" xmlns="http://www.w3.org/2000/svg" xmlns:xlink="http://www.w3.org/1999/xlink" x="0px" y="0px"
	 width="93.992px" height="93.992px" viewBox="0 0 93.992 93.992" enable-background="new 0 0 93.992 93.992" xml:space="preserve">
<g>
	<polygon fill="#4D4D4D" points="70.373,42.126 51.865,42.126 51.865,23.619 42.125,23.619 42.125,42.126 23.62,42.126 
		23.62,51.866 42.125,51.866 42.125,70.372 51.865,70.372 51.865,51.866 70.373,51.866 	"/>
	<g>
		<path fill="#4D4D4D" d="M46.995,93.992C21.082,93.992,0,72.91,0,46.997C0,21.083,21.082,0,46.995,0
			c25.914,0,46.997,21.083,46.997,46.997C93.992,72.91,72.909,93.992,46.995,93.992z M46.995,11.747
			c-19.437,0-35.249,15.813-35.249,35.25c0,19.437,15.812,35.248,35.249,35.248c19.437,0,35.25-15.812,35.25-35.248
			C82.245,27.56,66.432,11.747,46.995,11.747z"/>
	</g>
</g>
</svg>
