<?xml version="1.0" encoding="utf-8"?>
<!-- Generator: Adobe Illustrator 16.0.0, SVG Export Plug-In . SVG Version: 6.00 Build 0)  -->
<!DOCTYPE svg PUBLIC "-//W3C//DTD SVG 1.1//EN" "http://www.w3.org/Graphics/SVG/1.1/DTD/svg11.dtd">
<svg version="1.1" id="Capa_1" xmlns="http://www.w3.org/2000/svg" xmlns:xlink="http://www.w3.org/1999/xlink" x="0px" y="0px"
	 width="35.992px" height="29.703px" viewBox="0 0 35.992 29.703" enable-background="new 0 0 35.992 29.703" xml:space="preserve">
<path fill="#4D4D4D" d="M31.992,10.85H13.639l4.014-4.026c1.56-1.564,1.556-4.097-0.008-5.657c-1.564-1.56-4.098-1.556-5.656,0.008
	L1.168,12.027c-1.558,1.561-1.558,4.087,0,5.648l10.82,10.852c0.781,0.784,1.807,1.176,2.832,1.176c1.021,0,2.044-0.389,2.824-1.167
	c1.564-1.56,1.568-4.093,0.008-5.657l-4.017-4.028h18.356c2.209,0,4-1.791,4-4S34.201,10.85,31.992,10.85z"/>
</svg>
