<?xml version="1.0" encoding="utf-8"?>
<!-- Generator: Adobe Illustrator 16.0.0, SVG Export Plug-In . SVG Version: 6.00 Build 0)  -->
<!DOCTYPE svg PUBLIC "-//W3C//DTD SVG 1.1//EN" "http://www.w3.org/Graphics/SVG/1.1/DTD/svg11.dtd">
<svg version="1.1" id="Capa_1" xmlns="http://www.w3.org/2000/svg" xmlns:xlink="http://www.w3.org/1999/xlink" x="0px" y="0px"
	 width="53.001px" height="47.338px" viewBox="0 0 53.001 47.338" enable-background="new 0 0 53.001 47.338" xml:space="preserve">
<g>
	<g>
		<path fill="#F8F8F8" d="M53.001,7.938c0,1.1-0.9,2-2,2H2c-1.1,0-2-0.9-2-2V2c0-1.1,0.9-2,2-2h49.001c1.1,0,2,0.9,2,2V7.938z"/>
	</g>
	<g>
		<path fill="#F8F8F8" d="M53.001,26.637c0,1.1-0.9,2-2,2H2c-1.1,0-2-0.9-2-2v-5.938c0-1.1,0.9-2,2-2h49.001c1.1,0,2,0.9,2,2V26.637
			z"/>
	</g>
	<g>
		<path fill="#F8F8F8" d="M53.001,45.338c0,1.1-0.9,2-2,2H2c-1.1,0-2-0.9-2-2V39.4c0-1.1,0.9-2,2-2h49.001c1.1,0,2,0.9,2,2V45.338z"
			/>
	</g>
</g>
</svg>
