<?xml version="1.0" encoding="utf-8"?>
<!-- Generator: Adobe Illustrator 16.0.0, SVG Export Plug-In . SVG Version: 6.00 Build 0)  -->
<!DOCTYPE svg PUBLIC "-//W3C//DTD SVG 1.1//EN" "http://www.w3.org/Graphics/SVG/1.1/DTD/svg11.dtd">
<svg version="1.1" id="Capa_1" xmlns="http://www.w3.org/2000/svg" xmlns:xlink="http://www.w3.org/1999/xlink" x="0px" y="0px"
	 width="13.24px" height="13.24px" viewBox="0 0 13.24 13.24" enable-background="new 0 0 13.24 13.24" xml:space="preserve">
<path fill="#8C8C8C" d="M2.14,12.873l1.894-1.892c2.313,1.495,5.438,1.231,7.462-0.792c2.327-2.328,2.327-6.116,0-8.444
	c-2.327-2.327-6.116-2.327-8.442,0C1.027,3.77,0.766,6.896,2.26,9.208L0.368,11.1c-0.491,0.489-0.49,1.283,0,1.772
	C0.856,13.363,1.65,13.363,2.14,12.873z M4.648,3.341c1.447-1.447,3.803-1.447,5.25,0c1.447,1.448,1.447,3.804,0,5.252
	c-1.447,1.447-3.803,1.447-5.25,0C3.2,7.145,3.2,4.79,4.648,3.341z"/>
</svg>
