<?xml version="1.0" encoding="utf-8"?>
<!-- Generator: Adobe Illustrator 16.0.0, SVG Export Plug-In . SVG Version: 6.00 Build 0)  -->
<!DOCTYPE svg PUBLIC "-//W3C//DTD SVG 1.1//EN" "http://www.w3.org/Graphics/SVG/1.1/DTD/svg11.dtd">
<svg version="1.1" id="Capa_1" xmlns="http://www.w3.org/2000/svg" xmlns:xlink="http://www.w3.org/1999/xlink" x="0px" y="0px"
	 width="88.801px" height="79.094px" viewBox="0 0 88.801 79.094" enable-background="new 0 0 88.801 79.094" xml:space="preserve">
<g>
	<path fill="#4D4D4D" d="M36.531,9.016L17.326,24.078c-0.752,0.59-1.435,1.479-1.978,2.469H4c-2.2,0-4,1.799-4,4v18
		c0,2.199,1.8,4,4,4h11.349c0.543,0.99,1.226,1.879,1.978,2.469l19.205,15.063c1.731,1.357,3.147,0.668,3.147-1.531v-58
		C39.679,8.346,38.263,7.658,36.531,9.016z"/>
	<g>
		<path fill="#4D4D4D" d="M49.254,64.271c-2.209,0-4-1.791-4-4s1.791-4,4-4c9.223,0,16.726-7.502,16.726-16.725
			s-7.503-16.725-16.726-16.725c-2.209,0-4-1.791-4-4s1.791-4,4-4c13.634,0,24.726,11.092,24.726,24.725
			S62.888,64.271,49.254,64.271z"/>
	</g>
	<g>
		<path fill="#4D4D4D" d="M49.254,79.094c-2.209,0-4-1.791-4-4s1.791-4,4-4c17.395,0,31.547-14.152,31.547-31.547S66.648,8,49.254,8
			c-2.209,0-4-1.791-4-4s1.791-4,4-4c21.807,0,39.547,17.74,39.547,39.547S71.061,79.094,49.254,79.094z"/>
	</g>
</g>
</svg>
